<?xml version="1.0" encoding="utf-8"?>
<!-- Generator: Adobe Illustrator 24.0.3, SVG Export Plug-In . SVG Version: 6.00 Build 0)  -->
<svg version="1.1" id="Layer_1" xmlns="http://www.w3.org/2000/svg" xmlns:xlink="http://www.w3.org/1999/xlink" x="0px" y="0px"
	 viewBox="0 0 94 100" style="enable-background:new 0 0 94 100;" xml:space="preserve">
<style type="text/css">
	.st0{fill:#9A1034;}
	.st1{fill:#FFFFFF;stroke:#231F20;stroke-width:2;stroke-miterlimit:10;}
</style>
<rect x="7.6" y="7.9" class="st0" width="86.5" height="92"/>
<rect x="1.1" y="1.1" class="st1" width="86" height="92"/>
<path class="st1" d="M43.3,16.2c-16.6,0-30,13.4-30,30c0,14,9.5,25.7,22.5,29.1c0-1.8,0-4.8,0-7.3c-2,0.2-3.4,0.3-5.9-0.4
	c-3.8-1.1-4.6-4.8-5.9-6.2c-1.2-1.2-2.6-2.6-2.4-3.1c0.5-1.6,3,0.1,5.2,3c0.8,1.1,2,2.8,4.6,3.2c1.5,0.2,3.2-0.1,4.5-0.3
	c0.1-1.9,0.9-3.6,2.1-4.8c-8.1-0.7-14-3.5-14-14.3c0-3,1.3-5.7,3.5-8c-1.7-3.9,0.3-8,0.3-8c2.9,0.4,6.2,2,8.1,3.1
	c2.3-0.7,4.8-1.1,7.5-1.1s5.2,0.4,7.5,1.1c1.9-1.1,5.1-2.7,8.1-3.1c0,0,2,4.1,0.3,8c2.2,2.3,3.5,5,3.5,8c0,10.6-5.9,13.6-14,14.3
	c1.4,1.4,2.2,3.2,2.2,5.3s0,7.9,0,10.7c13-3.3,22.6-15.1,22.6-29.1C73.3,29.6,59.9,16.2,43.3,16.2z"/>
</svg>
